<mxfile host="app.diagrams.net" modified="2020-10-01T00:46:22.993Z" agent="5.0 (Windows NT 10.0; Win64; x64) AppleWebKit/537.36 (KHTML, like Gecko) Chrome/85.0.4183.121 Safari/537.36" etag="I-GzcYr9WCPPbPUhr9J3" version="13.7.7" type="github">
  <diagram id="R8FwQb0idkxKhGl7eEte" name="Page-1">
    <mxGraphModel dx="782" dy="429" grid="1" gridSize="10" guides="1" tooltips="1" connect="1" arrows="1" fold="1" page="1" pageScale="1" pageWidth="850" pageHeight="1100" math="0" shadow="0">
      <root>
        <mxCell id="0" />
        <mxCell id="1" parent="0" />
        <mxCell id="hHhzZHl6oqhR6jB0dMHu-8" value="" style="endArrow=classic;html=1;exitX=1;exitY=0.5;exitDx=0;exitDy=0;" edge="1" parent="1" source="QrAmCbrqn0bO8yuNC-rT-5">
          <mxGeometry width="50" height="50" relative="1" as="geometry">
            <mxPoint x="420" y="110" as="sourcePoint" />
            <mxPoint x="530" y="100" as="targetPoint" />
          </mxGeometry>
        </mxCell>
        <mxCell id="hHhzZHl6oqhR6jB0dMHu-1" value="User enters admin ID and Password" style="text;html=1;strokeColor=none;fillColor=none;align=center;verticalAlign=middle;whiteSpace=wrap;rounded=0;" vertex="1" parent="1">
          <mxGeometry x="435" y="70" width="85" height="20" as="geometry" />
        </mxCell>
        <mxCell id="QrAmCbrqn0bO8yuNC-rT-1" value="" style="ellipse;whiteSpace=wrap;html=1;aspect=fixed;fillColor=#000000;" parent="1" vertex="1">
          <mxGeometry x="350" y="20" width="20" height="20" as="geometry" />
        </mxCell>
        <mxCell id="QrAmCbrqn0bO8yuNC-rT-5" value="Main Window&lt;br&gt;&lt;div class=&quot;O0&quot; style=&quot;margin-top: 0pt ; margin-bottom: 0pt ; margin-left: 0.38in ; text-indent: -0.38in&quot;&gt;National park Menu&lt;/div&gt;" style="rounded=1;whiteSpace=wrap;html=1;fillColor=none;" parent="1" vertex="1">
          <mxGeometry x="300" y="70" width="120" height="60" as="geometry" />
        </mxCell>
        <mxCell id="QrAmCbrqn0bO8yuNC-rT-12" value="&lt;div class=&quot;O0&quot; style=&quot;margin-top: 0pt ; margin-bottom: 0pt ; margin-left: 0.38in ; text-indent: -0.38in&quot;&gt;National Parks by State&amp;nbsp; &amp;nbsp; &amp;nbsp; &amp;nbsp;&lt;/div&gt;" style="rounded=1;whiteSpace=wrap;html=1;fillColor=none;" parent="1" vertex="1">
          <mxGeometry x="200" y="190" width="120" height="60" as="geometry" />
        </mxCell>
        <mxCell id="QrAmCbrqn0bO8yuNC-rT-13" value="&lt;span style=&quot;text-indent: -36.48px&quot;&gt;National Parks by Number of visitors&amp;nbsp; &amp;nbsp; &amp;nbsp; &amp;nbsp;&lt;/span&gt;" style="rounded=1;whiteSpace=wrap;html=1;fillColor=none;" parent="1" vertex="1">
          <mxGeometry x="520" y="190" width="120" height="60" as="geometry" />
        </mxCell>
        <mxCell id="QrAmCbrqn0bO8yuNC-rT-23" value="" style="endArrow=classic;html=1;exitX=0.5;exitY=1;exitDx=0;exitDy=0;entryX=0.5;entryY=0;entryDx=0;entryDy=0;" parent="1" source="QrAmCbrqn0bO8yuNC-rT-1" target="QrAmCbrqn0bO8yuNC-rT-5" edge="1">
          <mxGeometry relative="1" as="geometry">
            <mxPoint x="340" y="40" as="sourcePoint" />
            <mxPoint x="500" y="40" as="targetPoint" />
          </mxGeometry>
        </mxCell>
        <mxCell id="QrAmCbrqn0bO8yuNC-rT-24" value="Program Begin" style="edgeLabel;resizable=0;html=1;align=center;verticalAlign=middle;" parent="QrAmCbrqn0bO8yuNC-rT-23" connectable="0" vertex="1">
          <mxGeometry relative="1" as="geometry" />
        </mxCell>
        <mxCell id="QrAmCbrqn0bO8yuNC-rT-28" value="" style="endArrow=none;html=1;entryX=0.5;entryY=1;entryDx=0;entryDy=0;" parent="1" target="QrAmCbrqn0bO8yuNC-rT-5" edge="1" source="hHhzZHl6oqhR6jB0dMHu-3">
          <mxGeometry width="50" height="50" relative="1" as="geometry">
            <mxPoint x="360" y="170" as="sourcePoint" />
            <mxPoint x="430" y="200" as="targetPoint" />
          </mxGeometry>
        </mxCell>
        <mxCell id="QrAmCbrqn0bO8yuNC-rT-29" value="" style="endArrow=none;html=1;entryX=0.719;entryY=1.008;entryDx=0;entryDy=0;entryPerimeter=0;exitX=0.75;exitY=1;exitDx=0;exitDy=0;" parent="1" edge="1" target="hHhzZHl6oqhR6jB0dMHu-36" source="hHhzZHl6oqhR6jB0dMHu-3">
          <mxGeometry width="50" height="50" relative="1" as="geometry">
            <mxPoint x="200" y="170" as="sourcePoint" />
            <mxPoint x="540" y="170" as="targetPoint" />
            <Array as="points" />
          </mxGeometry>
        </mxCell>
        <mxCell id="QrAmCbrqn0bO8yuNC-rT-11" value="&lt;div class=&quot;O0&quot; style=&quot;margin-top: 0pt ; margin-bottom: 0pt ; margin-left: 0.38in ; text-indent: -0.38in&quot;&gt;&amp;nbsp; &amp;nbsp;National Parks by Name&lt;/div&gt;" style="rounded=1;whiteSpace=wrap;html=1;fillColor=none;align=left;" parent="1" vertex="1">
          <mxGeometry x="50" y="190" width="120" height="60" as="geometry" />
        </mxCell>
        <mxCell id="QrAmCbrqn0bO8yuNC-rT-37" value="&lt;div class=&quot;O0&quot; style=&quot;margin-top: 0pt ; margin-bottom: 0pt ; margin-left: 0.38in ; text-indent: -0.38in&quot;&gt;National Parks by Size&amp;nbsp; &amp;nbsp; &amp;nbsp; &amp;nbsp;&lt;/div&gt;" style="rounded=1;whiteSpace=wrap;html=1;fillColor=none;" parent="1" vertex="1">
          <mxGeometry x="365" y="190" width="120" height="60" as="geometry" />
        </mxCell>
        <mxCell id="QrAmCbrqn0bO8yuNC-rT-43" value="Admin Login" style="rounded=1;whiteSpace=wrap;html=1;fillColor=none;" parent="1" vertex="1">
          <mxGeometry x="530" y="70" width="120" height="60" as="geometry" />
        </mxCell>
        <mxCell id="hHhzZHl6oqhR6jB0dMHu-4" value="" style="endArrow=none;html=1;entryX=0.5;entryY=1;entryDx=0;entryDy=0;" edge="1" parent="1" target="hHhzZHl6oqhR6jB0dMHu-3">
          <mxGeometry width="50" height="50" relative="1" as="geometry">
            <mxPoint x="360" y="170" as="sourcePoint" />
            <mxPoint x="360" y="140" as="targetPoint" />
          </mxGeometry>
        </mxCell>
        <mxCell id="hHhzZHl6oqhR6jB0dMHu-9" value="" style="endArrow=classic;html=1;exitX=0;exitY=0.75;exitDx=0;exitDy=0;entryX=1;entryY=0.75;entryDx=0;entryDy=0;" edge="1" parent="1" source="QrAmCbrqn0bO8yuNC-rT-43" target="QrAmCbrqn0bO8yuNC-rT-5">
          <mxGeometry width="50" height="50" relative="1" as="geometry">
            <mxPoint x="380" y="210" as="sourcePoint" />
            <mxPoint x="430" y="160" as="targetPoint" />
          </mxGeometry>
        </mxCell>
        <mxCell id="hHhzZHl6oqhR6jB0dMHu-10" value="User logs out" style="text;html=1;strokeColor=none;fillColor=none;align=center;verticalAlign=middle;whiteSpace=wrap;rounded=0;" vertex="1" parent="1">
          <mxGeometry x="441.25" y="110" width="72.5" height="20" as="geometry" />
        </mxCell>
        <mxCell id="hHhzZHl6oqhR6jB0dMHu-12" value="" style="endArrow=classic;html=1;strokeColor=#000000;" edge="1" parent="1" target="QrAmCbrqn0bO8yuNC-rT-11">
          <mxGeometry width="50" height="50" relative="1" as="geometry">
            <mxPoint x="110" y="170" as="sourcePoint" />
            <mxPoint x="430" y="100" as="targetPoint" />
            <Array as="points" />
          </mxGeometry>
        </mxCell>
        <mxCell id="hHhzZHl6oqhR6jB0dMHu-14" value="" style="endArrow=classic;html=1;strokeColor=#000000;" edge="1" parent="1">
          <mxGeometry width="50" height="50" relative="1" as="geometry">
            <mxPoint x="270" y="170" as="sourcePoint" />
            <mxPoint x="267" y="190" as="targetPoint" />
          </mxGeometry>
        </mxCell>
        <mxCell id="hHhzZHl6oqhR6jB0dMHu-15" value="" style="endArrow=classic;html=1;strokeColor=#000000;" edge="1" parent="1" target="QrAmCbrqn0bO8yuNC-rT-37">
          <mxGeometry width="50" height="50" relative="1" as="geometry">
            <mxPoint x="420" y="170" as="sourcePoint" />
            <mxPoint x="430" y="100" as="targetPoint" />
          </mxGeometry>
        </mxCell>
        <mxCell id="hHhzZHl6oqhR6jB0dMHu-16" value="" style="endArrow=classic;html=1;strokeColor=#000000;exitX=0.075;exitY=1.008;exitDx=0;exitDy=0;exitPerimeter=0;" edge="1" parent="1" source="hHhzZHl6oqhR6jB0dMHu-36">
          <mxGeometry width="50" height="50" relative="1" as="geometry">
            <mxPoint x="580" y="176" as="sourcePoint" />
            <mxPoint x="575" y="190" as="targetPoint" />
          </mxGeometry>
        </mxCell>
        <mxCell id="hHhzZHl6oqhR6jB0dMHu-17" value="" style="endArrow=none;html=1;strokeColor=#000000;entryX=0.5;entryY=1;entryDx=0;entryDy=0;" edge="1" parent="1" target="QrAmCbrqn0bO8yuNC-rT-11">
          <mxGeometry width="50" height="50" relative="1" as="geometry">
            <mxPoint x="110" y="320" as="sourcePoint" />
            <mxPoint x="430" y="100" as="targetPoint" />
          </mxGeometry>
        </mxCell>
        <mxCell id="hHhzZHl6oqhR6jB0dMHu-18" value="" style="endArrow=none;html=1;strokeColor=#000000;entryX=0.5;entryY=1;entryDx=0;entryDy=0;" edge="1" parent="1" source="hHhzZHl6oqhR6jB0dMHu-38" target="QrAmCbrqn0bO8yuNC-rT-12">
          <mxGeometry width="50" height="50" relative="1" as="geometry">
            <mxPoint x="260" y="320" as="sourcePoint" />
            <mxPoint x="120" y="260" as="targetPoint" />
          </mxGeometry>
        </mxCell>
        <mxCell id="hHhzZHl6oqhR6jB0dMHu-19" value="" style="endArrow=none;html=1;strokeColor=#000000;" edge="1" parent="1" source="hHhzZHl6oqhR6jB0dMHu-40">
          <mxGeometry width="50" height="50" relative="1" as="geometry">
            <mxPoint x="425" y="320" as="sourcePoint" />
            <mxPoint x="425" y="250" as="targetPoint" />
          </mxGeometry>
        </mxCell>
        <mxCell id="hHhzZHl6oqhR6jB0dMHu-20" value="" style="endArrow=none;html=1;strokeColor=#000000;entryX=0.5;entryY=1;entryDx=0;entryDy=0;" edge="1" parent="1" target="QrAmCbrqn0bO8yuNC-rT-13">
          <mxGeometry width="50" height="50" relative="1" as="geometry">
            <mxPoint x="580" y="320" as="sourcePoint" />
            <mxPoint x="435" y="260" as="targetPoint" />
          </mxGeometry>
        </mxCell>
        <mxCell id="hHhzZHl6oqhR6jB0dMHu-22" value="" style="endArrow=none;html=1;strokeColor=#000000;" edge="1" parent="1">
          <mxGeometry width="50" height="50" relative="1" as="geometry">
            <mxPoint x="110" y="320" as="sourcePoint" />
            <mxPoint x="580" y="320" as="targetPoint" />
          </mxGeometry>
        </mxCell>
        <mxCell id="hHhzZHl6oqhR6jB0dMHu-23" value="" style="endArrow=classic;html=1;strokeColor=#000000;" edge="1" parent="1" source="hHhzZHl6oqhR6jB0dMHu-29">
          <mxGeometry width="50" height="50" relative="1" as="geometry">
            <mxPoint x="340" y="320" as="sourcePoint" />
            <mxPoint x="340" y="410" as="targetPoint" />
          </mxGeometry>
        </mxCell>
        <mxCell id="hHhzZHl6oqhR6jB0dMHu-24" value="" style="ellipse;whiteSpace=wrap;html=1;aspect=fixed;fillColor=#000000;" vertex="1" parent="1">
          <mxGeometry x="330" y="420" width="20" height="20" as="geometry" />
        </mxCell>
        <mxCell id="hHhzZHl6oqhR6jB0dMHu-26" value="" style="ellipse;whiteSpace=wrap;html=1;aspect=fixed;fillColor=none;" vertex="1" parent="1">
          <mxGeometry x="325" y="415" width="30" height="30" as="geometry" />
        </mxCell>
        <mxCell id="hHhzZHl6oqhR6jB0dMHu-29" value="Program ends" style="text;html=1;strokeColor=none;fillColor=none;align=center;verticalAlign=middle;whiteSpace=wrap;rounded=0;" vertex="1" parent="1">
          <mxGeometry x="285" y="360" width="110" height="20" as="geometry" />
        </mxCell>
        <mxCell id="hHhzZHl6oqhR6jB0dMHu-32" value="" style="endArrow=none;html=1;strokeColor=#000000;entryX=0.5;entryY=0;entryDx=0;entryDy=0;" edge="1" parent="1" target="hHhzZHl6oqhR6jB0dMHu-29">
          <mxGeometry width="50" height="50" relative="1" as="geometry">
            <mxPoint x="340" y="320" as="sourcePoint" />
            <mxPoint x="430" y="210" as="targetPoint" />
          </mxGeometry>
        </mxCell>
        <mxCell id="hHhzZHl6oqhR6jB0dMHu-33" value="" style="endArrow=classic;html=1;strokeColor=#000000;exitX=1;exitY=0.5;exitDx=0;exitDy=0;rounded=0;" edge="1" parent="1" source="QrAmCbrqn0bO8yuNC-rT-43">
          <mxGeometry width="50" height="50" relative="1" as="geometry">
            <mxPoint x="680" y="100" as="sourcePoint" />
            <mxPoint x="490" y="170" as="targetPoint" />
            <Array as="points">
              <mxPoint x="680" y="100" />
              <mxPoint x="680" y="150" />
              <mxPoint x="490" y="150" />
            </Array>
          </mxGeometry>
        </mxCell>
        <mxCell id="hHhzZHl6oqhR6jB0dMHu-35" value="User can view national parks updated by park name" style="text;html=1;strokeColor=none;fillColor=none;align=center;verticalAlign=middle;whiteSpace=wrap;rounded=0;" vertex="1" parent="1">
          <mxGeometry x="55" y="250" width="110" height="60" as="geometry" />
        </mxCell>
        <mxCell id="hHhzZHl6oqhR6jB0dMHu-36" value="&lt;span style=&quot;color: rgb(36 , 41 , 46) ; background-color: rgb(255 , 255 , 255)&quot;&gt;&lt;font style=&quot;font-size: 12px&quot;&gt;Admin can read input file into the program and is capable to add new national parks&lt;/font&gt;&lt;/span&gt;" style="text;html=1;strokeColor=none;fillColor=none;align=center;verticalAlign=middle;whiteSpace=wrap;rounded=0;" vertex="1" parent="1">
          <mxGeometry x="560" y="130" width="240" height="40" as="geometry" />
        </mxCell>
        <mxCell id="hHhzZHl6oqhR6jB0dMHu-41" value="User can view national parks updated by number of visitors" style="text;html=1;strokeColor=none;fillColor=none;align=center;verticalAlign=middle;whiteSpace=wrap;rounded=0;" vertex="1" parent="1">
          <mxGeometry x="525" y="250" width="110" height="60" as="geometry" />
        </mxCell>
        <mxCell id="hHhzZHl6oqhR6jB0dMHu-44" value="" style="endArrow=classic;html=1;strokeColor=#000000;exitX=0.711;exitY=0.958;exitDx=0;exitDy=0;exitPerimeter=0;" edge="1" parent="1" source="hHhzZHl6oqhR6jB0dMHu-36">
          <mxGeometry width="50" height="50" relative="1" as="geometry">
            <mxPoint x="736" y="171" as="sourcePoint" />
            <mxPoint x="730" y="190" as="targetPoint" />
          </mxGeometry>
        </mxCell>
        <mxCell id="hHhzZHl6oqhR6jB0dMHu-45" value="&lt;span style=&quot;text-indent: -36.48px&quot;&gt;Help&lt;/span&gt;" style="rounded=1;whiteSpace=wrap;html=1;fillColor=none;" vertex="1" parent="1">
          <mxGeometry x="670" y="190" width="120" height="60" as="geometry" />
        </mxCell>
        <mxCell id="hHhzZHl6oqhR6jB0dMHu-46" value="" style="endArrow=none;html=1;strokeColor=#000000;entryX=0.5;entryY=1;entryDx=0;entryDy=0;" edge="1" parent="1" target="hHhzZHl6oqhR6jB0dMHu-45">
          <mxGeometry width="50" height="50" relative="1" as="geometry">
            <mxPoint x="730" y="320" as="sourcePoint" />
            <mxPoint x="760" y="250" as="targetPoint" />
          </mxGeometry>
        </mxCell>
        <mxCell id="hHhzZHl6oqhR6jB0dMHu-47" value="" style="endArrow=none;html=1;strokeColor=#000000;" edge="1" parent="1">
          <mxGeometry width="50" height="50" relative="1" as="geometry">
            <mxPoint x="577" y="320" as="sourcePoint" />
            <mxPoint x="730" y="320" as="targetPoint" />
          </mxGeometry>
        </mxCell>
        <mxCell id="hHhzZHl6oqhR6jB0dMHu-48" value="" style="endArrow=classic;html=1;strokeColor=#000000;exitX=1;exitY=0.5;exitDx=0;exitDy=0;rounded=0;" edge="1" parent="1" source="hHhzZHl6oqhR6jB0dMHu-45">
          <mxGeometry width="50" height="50" relative="1" as="geometry">
            <mxPoint x="460" y="220" as="sourcePoint" />
            <mxPoint x="360" y="140" as="targetPoint" />
            <Array as="points">
              <mxPoint x="830" y="220" />
              <mxPoint x="830" y="10" />
              <mxPoint x="640" y="10" />
              <mxPoint x="210" y="10" />
              <mxPoint x="210" y="140" />
            </Array>
          </mxGeometry>
        </mxCell>
        <mxCell id="hHhzZHl6oqhR6jB0dMHu-3" value="User chooses 1 of&amp;nbsp; 5 options to view&amp;nbsp;" style="text;html=1;strokeColor=none;fillColor=none;align=center;verticalAlign=middle;whiteSpace=wrap;rounded=0;" vertex="1" parent="1">
          <mxGeometry x="290" y="150" width="140" height="20" as="geometry" />
        </mxCell>
        <mxCell id="hHhzZHl6oqhR6jB0dMHu-49" value="" style="endArrow=none;html=1;entryX=0.719;entryY=1.008;entryDx=0;entryDy=0;entryPerimeter=0;" edge="1" parent="1" target="hHhzZHl6oqhR6jB0dMHu-3">
          <mxGeometry width="50" height="50" relative="1" as="geometry">
            <mxPoint x="110" y="170" as="sourcePoint" />
            <mxPoint x="732.56" y="170.32000000000005" as="targetPoint" />
            <Array as="points" />
          </mxGeometry>
        </mxCell>
        <mxCell id="hHhzZHl6oqhR6jB0dMHu-51" value="User can view Help scroll for help navigating in brochure" style="text;html=1;strokeColor=none;fillColor=none;align=center;verticalAlign=middle;whiteSpace=wrap;rounded=0;" vertex="1" parent="1">
          <mxGeometry x="670" y="260" width="110" height="60" as="geometry" />
        </mxCell>
        <mxCell id="hHhzZHl6oqhR6jB0dMHu-52" value="Help box stays open and user can navigate main menu" style="text;html=1;strokeColor=none;fillColor=none;align=center;verticalAlign=middle;whiteSpace=wrap;rounded=0;" vertex="1" parent="1">
          <mxGeometry x="170" y="60" width="90" height="40" as="geometry" />
        </mxCell>
        <mxCell id="hHhzZHl6oqhR6jB0dMHu-57" value="" style="endArrow=classic;html=1;strokeColor=#000000;rounded=0;entryX=0.433;entryY=0.011;entryDx=0;entryDy=0;entryPerimeter=0;" edge="1" parent="1" target="hHhzZHl6oqhR6jB0dMHu-62">
          <mxGeometry width="50" height="50" relative="1" as="geometry">
            <mxPoint x="110" y="170" as="sourcePoint" />
            <mxPoint x="10" y="380" as="targetPoint" />
            <Array as="points">
              <mxPoint x="10" y="170" />
              <mxPoint x="10" y="320" />
              <mxPoint x="62" y="320" />
            </Array>
          </mxGeometry>
        </mxCell>
        <mxCell id="hHhzZHl6oqhR6jB0dMHu-38" value="User can view national parks updated by state" style="text;html=1;strokeColor=none;fillColor=none;align=center;verticalAlign=middle;whiteSpace=wrap;rounded=0;" vertex="1" parent="1">
          <mxGeometry x="205" y="250" width="110" height="60" as="geometry" />
        </mxCell>
        <mxCell id="hHhzZHl6oqhR6jB0dMHu-59" value="" style="endArrow=none;html=1;strokeColor=#000000;entryX=0.5;entryY=1;entryDx=0;entryDy=0;" edge="1" parent="1" target="hHhzZHl6oqhR6jB0dMHu-38">
          <mxGeometry width="50" height="50" relative="1" as="geometry">
            <mxPoint x="260" y="320" as="sourcePoint" />
            <mxPoint x="260" y="250" as="targetPoint" />
          </mxGeometry>
        </mxCell>
        <mxCell id="hHhzZHl6oqhR6jB0dMHu-40" value="User can view national parks updated by size" style="text;html=1;strokeColor=none;fillColor=none;align=center;verticalAlign=middle;whiteSpace=wrap;rounded=0;" vertex="1" parent="1">
          <mxGeometry x="370" y="250" width="110" height="60" as="geometry" />
        </mxCell>
        <mxCell id="hHhzZHl6oqhR6jB0dMHu-60" value="" style="endArrow=none;html=1;strokeColor=#000000;" edge="1" parent="1" target="hHhzZHl6oqhR6jB0dMHu-40">
          <mxGeometry width="50" height="50" relative="1" as="geometry">
            <mxPoint x="425" y="320" as="sourcePoint" />
            <mxPoint x="425" y="250" as="targetPoint" />
          </mxGeometry>
        </mxCell>
        <mxCell id="hHhzZHl6oqhR6jB0dMHu-62" value="&lt;div class=&quot;O0&quot; style=&quot;margin-top: 0pt ; margin-bottom: 0pt ; margin-left: 0.38in ; text-indent: -0.38in&quot;&gt;Contact Us&amp;nbsp;&lt;/div&gt;" style="rounded=1;whiteSpace=wrap;html=1;fillColor=none;align=left;" vertex="1" parent="1">
          <mxGeometry x="10" y="370" width="120" height="60" as="geometry" />
        </mxCell>
        <mxCell id="hHhzZHl6oqhR6jB0dMHu-63" value="" style="endArrow=none;html=1;strokeColor=#000000;exitX=0.439;exitY=1.044;exitDx=0;exitDy=0;exitPerimeter=0;rounded=0;" edge="1" parent="1" source="hHhzZHl6oqhR6jB0dMHu-62">
          <mxGeometry width="50" height="50" relative="1" as="geometry">
            <mxPoint x="230" y="450" as="sourcePoint" />
            <mxPoint x="160" y="320" as="targetPoint" />
            <Array as="points">
              <mxPoint x="63" y="500" />
              <mxPoint x="160" y="500" />
            </Array>
          </mxGeometry>
        </mxCell>
        <mxCell id="hHhzZHl6oqhR6jB0dMHu-64" value="User can input name, email, and comments or suggestions to national parks&amp;nbsp;" style="text;html=1;strokeColor=none;fillColor=none;align=center;verticalAlign=middle;whiteSpace=wrap;rounded=0;" vertex="1" parent="1">
          <mxGeometry y="470" width="150" height="20" as="geometry" />
        </mxCell>
      </root>
    </mxGraphModel>
  </diagram>
</mxfile>
